<svg xmlns="http://www.w3.org/2000/svg" xml:space="preserve" width="1500" height="178" data-id="lg_vpcKXu38kYD2Ko9w6P" data-version="1"><g data-padding="20"><g transform="translate(10 3.179)scale(.96429)"><path fill="#7a26c1" stroke="transparent" d="M726.427 59.49v5.34q0 6.56-4.37 9.8-2.11 1.54-4.34 2.39-2.22.85-4.33.85h-17.66q-2.1 0-4.33-.85t-4.34-2.39q-2.1-1.62-3.24-4.01-1.13-2.39-1.13-5.79V26.36q0-3.24 1.13-5.71 1.14-2.47 3.24-4.01h-.08q2.11-1.38 4.38-2.27t4.37-.89h17.66q2.11 0 4.37.89 2.27.89 4.38 2.27h-.08q2.1 1.54 3.24 4.01 1.13 2.47 1.13 5.71v5.59q0 3.88-4.86 3.88-4.78 0-4.78-3.88v-4.86q0-2.03-1.21-3.73-1.22-1.7-4.22-1.7h-13.6q-3 0-4.22 1.7-1.21 1.7-1.21 3.73v37.09q0 2.11 1.21 3.81 1.22 1.7 4.22 1.7h13.6q3 0 4.22-1.7 1.21-1.7 1.21-3.81v-4.69q0-3.81 4.78-3.81 4.86 0 4.86 3.81m61.4-46.42q2.59 0 5.67 1.22 2.83 1.13 2.83 4.29v55.81q0 3.89-4.78 3.89-4.77 0-4.77-3.89V32.76l-2.35-.25-3.24 10.53-9.72 32.4q-.89 2.84-4.38 2.76-1.54-.08-2.67-.81t-1.54-2.11l-5.83-18.87q-1.78-5.59-3.57-11.38-1.78-5.79-3.88-12.84l-2.35.32v41.88q0 3.89-4.78 3.89t-4.78-3.89V18.58q0-3.08 2.83-4.29 3-1.22 5.76-1.14 1.21 0 2.51.33 1.29.32 2.43.93 1.13.61 2.02 1.54t1.38 2.15l12.72 43.33q1.37-4.78 2.91-10.37t3.16-11.34l3.2-11.38 2.96-10.49q.48-1.13 1.37-2.02t2.03-1.5q1.13-.61 2.39-.93 1.25-.33 2.47-.33m63.58 3.89v47.87q0 6.56-4.37 9.8-2.11 1.54-4.33 2.39-2.23.85-4.34.85h-17.66q-2.1 0-4.33-.85t-4.33-2.39q-2.11-1.62-3.24-4.01-1.14-2.39-1.14-5.79V16.96q0-3.89 4.78-3.89 4.86 0 4.86 3.89v47.22q0 2.11 1.22 3.81 1.21 1.7 4.21 1.7h13.61q2.99 0 4.21-1.7 1.21-1.7 1.21-3.81V16.96q0-3.89 4.78-3.89 4.86 0 4.86 3.89m-319.81 147.87h-29.64q-3 0-4.05-1.54t-1.05-3.4v-54.6q0-1.86 1.05-3.36t4.05-1.5h28.19q2.99 0 3.16 4.05.16 4.13-3.16 4.13h-23.74v48.04h25.19q3 0 3.08 3.97.17 4.21-3.08 4.21m-4.45-33.54q0 2.84-1.98 4.78-1.99 1.95-4.82 1.95-2.76 0-4.7-1.95-1.95-1.94-1.95-4.78 0-2.83 1.95-4.78 1.94-1.94 4.7-1.94 2.83 0 4.82 1.94 1.98 1.95 1.98 4.78m35.32 33.86q-1.62 0-3.45-.53-1.82-.52-2.63-1.98-1.86-6.32-3.89-12.96-2.02-6.64-4.05-13.04-2.26-7.53-4.86-15.67-2.59-8.14-4.86-15.6-.48-1.78.57-3.12 1.05-1.33 3-1.98 1.21-.32 2.1-.32 2.76 0 3.57 2.75l5.99 19.2q.81 2.91 1.9 6.4l2.23 7.12 2.27 7.25 2.11 6.69q1.53-5.11 3.36-11.06l3.72-12.11 3.77-12.19 3.48-11.3q.89-2.75 3.49-2.75.97 0 2.26.32 4.46 1.22 3.49 5.1l-8.83 28.6q-4.46 14.41-8.83 28.67-.65 1.62-2.39 2.07-1.74.44-3.52.44m66.09-.32h-29.64q-3 0-4.05-1.54-1.06-1.54-1.06-3.4v-54.6q0-1.86 1.06-3.36 1.05-1.5 4.05-1.5h28.18q3 0 3.16 4.05.16 4.13-3.16 4.13h-23.73v48.04h25.19q3 0 3.08 3.97.16 4.21-3.08 4.21m-4.45-33.54q0 2.84-1.99 4.78-1.98 1.95-4.82 1.95-2.75 0-4.7-1.95-1.94-1.94-1.94-4.78 0-2.83 1.94-4.78 1.95-1.94 4.7-1.94 2.84 0 4.82 1.94 1.99 1.95 1.99 4.78m52.16 16.45v-43.82q0-3.89 4.78-3.89t4.78 3.89v55.89q0 2.83-3 4.13h.08q-1.29.56-2.75.89-1.46.32-2.84.32-1.05 0-2.18-.2-1.14-.2-2.15-.65-1.01-.44-1.86-1.21t-1.34-1.91l-17.58-43.82-2.18.24v43.74q0 3.89-4.86 3.89-4.78 0-4.78-3.89v-55.8q0-3.33 2.91-4.46 2.68-1.05 5.67-1.05 2.11 0 4.26.85 2.14.85 3.28 3.2l17.49 43.9Zm43.26-39.13v52.9q0 3.88-4.87 3.88-4.77 0-4.77-3.88v-52.9h-14.18q-2.92 0-3.08-4.13 0-4.05 3.08-4.05h37.99q3.08 0 2.92 4.05 0 4.13-2.92 4.13Zm58.23 0v52.73q0 3.89-4.78 3.89-4.77 0-4.77-3.89v-56.05q0-1.86 1.05-3.36t4.05-1.5h27.54q2.92 0 3.08 4.05.16 4.13-3.08 4.13Zm20.74 22.68q0 1.38-.53 2.64-.52 1.25-1.45 2.14-.94.89-2.15 1.42-1.22.53-2.67.53-2.76 0-4.7-1.95-1.95-1.94-1.95-4.78 0-2.83 1.95-4.78 1.94-1.94 4.7-1.94 1.45 0 2.67.53 1.21.52 2.15 1.45.93.94 1.45 2.15.53 1.22.53 2.59m24.22-27.37v57.42q0 3.89-4.86 3.89-4.78 0-4.78-3.89v-57.42q0-3.89 4.78-3.89 4.86 0 4.86 3.89m48.84 43.82v-43.82q0-3.89 4.78-3.89t4.78 3.89v55.89q0 2.83-3 4.13h.08q-1.29.56-2.75.89-1.46.32-2.84.32-1.05 0-2.18-.2-1.14-.2-2.15-.65-1.01-.44-1.86-1.21t-1.34-1.91l-17.58-43.82-2.18.24v43.74q0 3.89-4.86 3.89-4.78 0-4.78-3.89v-55.8q0-3.33 2.92-4.46 2.67-1.05 5.66-1.05 2.11 0 4.26.85 2.14.85 3.28 3.2l17.49 43.9Zm39.21 8.91h11.01q3 0 4.21-1.7 1.22-1.71 1.22-3.81v-37.1q0-2.02-1.22-3.73-1.21-1.7-4.21-1.7h-18.95l-.08 52.82q0 1.78-1.38 2.83t-3.4 1.05q-4.78 0-4.78-3.88v-56.14q0-2.91 1.5-3.89 1.5-.97 3.6-.97h25.52q2.1 0 4.37.89t4.37 2.27h-.08q2.11 1.54 3.24 4.01 1.14 2.47 1.14 5.71v38.48q0 6.56-4.38 9.8-2.1 1.54-4.33 2.39t-4.33.85h-13.61q-1.38 0-2.15-1.14-.77-1.13-.77-2.99 0-4.05 3.49-4.05m73.14 8.18h-29.65q-2.99 0-4.05-1.54-1.05-1.54-1.05-3.4v-54.6q0-1.86 1.05-3.36 1.06-1.5 4.05-1.5h28.19q3 0 3.16 4.05.16 4.13-3.16 4.13h-23.73v48.04h25.19q3 0 3.08 3.97.16 4.21-3.08 4.21m-4.46-33.54q0 2.84-1.98 4.78-1.99 1.95-4.82 1.95-2.75 0-4.7-1.95-1.94-1.94-1.94-4.78 0-2.83 1.94-4.78 1.95-1.94 4.7-1.94 2.83 0 4.82 1.94 1.98 1.95 1.98 4.78m54.52 32.48-15.31-25.67h-6.24q-1.38 0-2.15-1.1-.77-1.09-.77-2.95 0-4.13 3.41-4.13h9.47q3 0 4.22-1.7 1.21-1.71 1.21-3.73v-10.45q0-2.02-1.21-3.73-1.22-1.7-4.22-1.7h-17.09v52.82q0 3.88-4.78 3.88t-4.78-3.88v-56.14q0-2.91 1.5-3.89 1.5-.97 3.61-.97h23.57q2.1 0 4.37.89t4.38 2.27h-.08q2.1 1.54 3.24 4.01 1.13 2.47 1.13 5.71v11.83q0 6.56-4.37 9.8-.9.65-1.91 1.21l-2.06 1.14 12.96 21.38q.24.41.48 1.05.25.65.25 1.06 0 1.94-2.76 3.72v-.08q-1.86 1.14-3.16 1.14-1.86 0-2.99-1.87Z"/><rect width="560" height="178.48" x="86.407" y="-400.2" fill="none" rx="0" ry="0" transform="translate(401 399.96)"/></g><path fill="transparent" stroke="transparent" d="M470 0h560v178H470z"/></g></svg>